<?xml version="1.0" encoding="utf-8"?>
<!-- Generator: Adobe Illustrator 27.6.1, SVG Export Plug-In . SVG Version: 6.00 Build 0)  -->
<svg version="1.1" id="Layer_1" xmlns="http://www.w3.org/2000/svg" xmlns:xlink="http://www.w3.org/1999/xlink" x="0px" y="0px"
	 viewBox="0 0 348.9 105" style="enable-background:new 0 0 348.9 105;" xml:space="preserve">
<style type="text/css">
	.st0{clip-path:url(#SVGID_00000156588582348598600450000017790737387763506077_);}
	.st1{clip-path:url(#SVGID_00000151533713067488311720000003347549540683559312_);}
	.st2{clip-path:url(#SVGID_00000072251785916720785570000016564132984886613183_);}
	.st3{clip-path:url(#SVGID_00000110456613661017703130000014484032363913394342_);}
	.st4{clip-path:url(#SVGID_00000127032673072195673210000010916213561574363313_);}
	.st5{clip-path:url(#SVGID_00000066490570518047477420000004151625282605273777_);}
	.st6{clip-path:url(#SVGID_00000037691822679212738050000003556199199468363152_);}
	.st7{clip-path:url(#SVGID_00000133518999341458001030000013421392533522802347_);}
	.st8{clip-path:url(#SVGID_00000140697812314469104200000010207746549963571841_);}
	.st9{clip-path:url(#SVGID_00000026152837349741820550000018319033024054839701_);}
	.st10{clip-path:url(#SVGID_00000169551341529223160070000013306281896611345033_);}
	.st11{clip-path:url(#SVGID_00000143611890224008528750000003950837757124399037_);}
	.st12{clip-path:url(#SVGID_00000082344309665364002640000000401074109980879765_);}
	.st13{clip-path:url(#SVGID_00000048493824114897694420000012844050741670870675_);}
	.st14{clip-path:url(#SVGID_00000168106114353258891010000007105149250284884877_);}
	.st15{clip-path:url(#SVGID_00000174587555117406804150000007911756841044382116_);}
</style>
<g>
	<g>
		<g>
			<defs>
				<rect id="SVGID_1_" x="18.7" y="-7.6" width="311.5" height="120.1"/>
			</defs>
			<clipPath id="SVGID_00000039837946076727321850000006950185315956365188_">
				<use xlink:href="#SVGID_1_"  style="overflow:visible;"/>
			</clipPath>
			<polygon style="clip-path:url(#SVGID_00000039837946076727321850000006950185315956365188_);" points="133.2,21.9 139.8,21.9 
				146.4,36.2 146.4,36.2 153,21.9 159.5,21.9 149.1,43 143.7,43 			"/>
		</g>
		<g>
			<defs>
				<rect id="SVGID_00000109736095154455567090000012711781841645720233_" x="18.7" y="-7.6" width="311.5" height="120.1"/>
			</defs>
			<clipPath id="SVGID_00000107577355562088482470000005624467614449008821_">
				<use xlink:href="#SVGID_00000109736095154455567090000012711781841645720233_"  style="overflow:visible;"/>
			</clipPath>
			<path style="clip-path:url(#SVGID_00000107577355562088482470000005624467614449008821_);" d="M161.3,12.5h6.1v5.9h-6.1V12.5z
				 M161.5,21.9h5.9V43h-5.9V21.9z"/>
		</g>
		<g>
			<defs>
				<rect id="SVGID_00000139992678076156541350000015687368146749963392_" x="18.7" y="-7.6" width="311.5" height="120.1"/>
			</defs>
			<clipPath id="SVGID_00000103963068308418119130000016002470868210350230_">
				<use xlink:href="#SVGID_00000139992678076156541350000015687368146749963392_"  style="overflow:visible;"/>
			</clipPath>
			<g style="clip-path:url(#SVGID_00000103963068308418119130000016002470868210350230_);">
				<g>
					<defs>
						<rect id="SVGID_00000107557158108988363400000015206202258225675140_" x="18.7" y="-7.6" width="311.5" height="120.1"/>
					</defs>
					<clipPath id="SVGID_00000070091353651740489330000007510145302421327791_">
						<use xlink:href="#SVGID_00000107557158108988363400000015206202258225675140_"  style="overflow:visible;"/>
					</clipPath>
					<path style="clip-path:url(#SVGID_00000070091353651740489330000007510145302421327791_);" d="M175.7,34.9c0.8,2.7,3,4,6.3,4
						c3,0,4.8-0.7,4.8-1.8c0-1.2-1.2-1.8-5.2-2.4c-7.7-1.2-10.5-3-10.5-6.8c0-3.9,3.9-6.5,9.7-6.5c5.3,0,10.1,2.7,11.2,6.3l-5.4,1.6
						c-0.8-2.1-3-3.3-5.9-3.3c-2.4,0-4,0.7-4,1.8c0,1.2,1.2,1.5,5.8,2.3c7.2,1.2,10,3,10,6.9c0,4-4.2,6.6-10.5,6.6
						c-3.1,0-5.8-0.7-7.9-2.1c-2.1-1.3-3.5-3.1-4-5.4L175.7,34.9z"/>
				</g>
				<g>
					<defs>
						<rect id="SVGID_00000086682626159823318720000008646350448397499056_" x="18.7" y="-7.6" width="311.5" height="120.1"/>
					</defs>
					<clipPath id="SVGID_00000167367956395633804200000014335442418443226790_">
						<use xlink:href="#SVGID_00000086682626159823318720000008646350448397499056_"  style="overflow:visible;"/>
					</clipPath>
					<path style="clip-path:url(#SVGID_00000167367956395633804200000014335442418443226790_);" d="M195.1,12.5h6.1v5.9h-6.1V12.5z
						 M195.2,21.9h5.9V43h-5.9V21.9z"/>
				</g>
				<g>
					<defs>
						<rect id="SVGID_00000036210742927962563600000012176557610082126478_" x="18.7" y="-7.6" width="311.5" height="120.1"/>
					</defs>
					<clipPath id="SVGID_00000087400841646513630110000005976845060967531679_">
						<use xlink:href="#SVGID_00000036210742927962563600000012176557610082126478_"  style="overflow:visible;"/>
					</clipPath>
					<path style="clip-path:url(#SVGID_00000087400841646513630110000005976845060967531679_);" d="M214.6,27v8.9
						c0,1.3,0.4,1.7,2.1,1.7h3.9V43h-4.4c-5.3,0-7.4-2.1-7.4-6.8V27h-4.9v-5h4.9v-5.4h5.9v5.3h6.8v5L214.6,27L214.6,27z"/>
				</g>
				<g>
					<defs>
						<rect id="SVGID_00000135685885041128621860000016479650485800234659_" x="18.7" y="-7.6" width="311.5" height="120.1"/>
					</defs>
					<clipPath id="SVGID_00000144300612115244139550000004258017468883157664_">
						<use xlink:href="#SVGID_00000135685885041128621860000016479650485800234659_"  style="overflow:visible;"/>
					</clipPath>
					<path style="clip-path:url(#SVGID_00000144300612115244139550000004258017468883157664_);" d="M190.9,61.8
						c-2.7,0-5.2,0.9-6.9,2.6h-0.1v-9.9H178v29.1h5.9V72.3c0-3,2.4-5.2,5.8-5.2s5.5,2,5.5,5.2v11.3h5.9V71.5
						C201.1,65.8,196.9,61.8,190.9,61.8"/>
				</g>
				<g>
					<defs>
						<rect id="SVGID_00000036942794771306947680000017844578531230155919_" x="18.7" y="-7.6" width="311.5" height="120.1"/>
					</defs>
					<clipPath id="SVGID_00000145750125242289820490000017560239093380280461_">
						<use xlink:href="#SVGID_00000036942794771306947680000017844578531230155919_"  style="overflow:visible;"/>
					</clipPath>
					<path style="clip-path:url(#SVGID_00000145750125242289820490000017560239093380280461_);" d="M214.7,61.8
						c-5.4,0-9.9,3-10.6,7.3l5.6,1.2c0.5-2.4,2.6-3.8,5.3-3.8c2.3,0,3.7,0.8,3.7,2.2c0,1.1-1.2,1.6-5,2.1c-6.7,0.9-9.3,3-9.3,6.9
						c0,3.7,3.2,6.3,7.9,6.3c3.1,0,5.9-1.2,7.1-2.9h0.1v2.3h5.3V70.1C224.6,64.9,220.8,61.8,214.7,61.8 M219,75.7
						c0,2.1-2.6,3.5-6,3.5c-2.2,0-3.3-0.6-3.3-1.8c0-1.2,1.2-1.9,4.7-2.6c2.9-0.5,4-1,4.5-1.7h0.1V75.7z"/>
				</g>
				<g>
					<defs>
						<rect id="SVGID_00000050648382855069859520000009418013037163782799_" x="18.7" y="-7.6" width="311.5" height="120.1"/>
					</defs>
					<clipPath id="SVGID_00000158023152730827178490000013731950615213874867_">
						<use xlink:href="#SVGID_00000050648382855069859520000009418013037163782799_"  style="overflow:visible;"/>
					</clipPath>
					<path style="clip-path:url(#SVGID_00000158023152730827178490000013731950615213874867_);" d="M263.5,61.8
						c-6.7,0-11.5,4.7-11.5,11.2c0,6.7,4.4,11.1,11.8,11.1c4.4,0,7.6-1.5,10.1-4.3l-3.6-3.6c-2.1,2.2-4,3.1-6.5,3.1
						c-3.5,0-5.8-1.7-5.9-4.5h17.1v-1.6C275,66.8,270.5,61.8,263.5,61.8 M257.9,70.7c0.3-2.5,2.5-4.1,5.7-4.1c3.1,0,5.4,1.6,5.6,4.1
						H257.9z"/>
				</g>
				<g>
					<defs>
						<rect id="SVGID_00000004520126692032289990000016938611620869397653_" x="18.7" y="-7.6" width="311.5" height="120.1"/>
					</defs>
					<clipPath id="SVGID_00000090279959907020416510000012635618966306974380_">
						<use xlink:href="#SVGID_00000004520126692032289990000016938611620869397653_"  style="overflow:visible;"/>
					</clipPath>
					<path style="clip-path:url(#SVGID_00000090279959907020416510000012635618966306974380_);" d="M291.1,61.8
						c-2.8,0-5.4,1-7.1,2.6h-0.1v-2h-5.7v21.1h5.9V72.3c0-3,2.4-5.2,5.8-5.2s5.5,2,5.5,5.2v11.3h5.9V71.5
						C301.1,65.8,297,61.8,291.1,61.8"/>
				</g>
				<g>
					<defs>
						<rect id="SVGID_00000024711315092107884650000001776527528275112580_" x="18.7" y="-7.6" width="311.5" height="120.1"/>
					</defs>
					<clipPath id="SVGID_00000177455845190590587760000001904273887479278014_">
						<use xlink:href="#SVGID_00000024711315092107884650000001776527528275112580_"  style="overflow:visible;"/>
					</clipPath>
					<path style="clip-path:url(#SVGID_00000177455845190590587760000001904273887479278014_);" d="M247.4,61.2
						c-1.6,0.7-3,2.1-3,2.1l0,0c-1.5-0.9-3.4-1.5-5.5-1.5c-5.9,0-10.1,4-10.1,9.2c0,2.2,0.7,4.2,2.1,5.8l-0.8,0.8
						c-1.4,1.2-1.9,2.6-1.9,4.4c0,3.6,2.8,6.3,7.2,6.3h0.7h4.8c2.1,0,3.3,0.8,3.3,2.6c0,0.7,0,1.9,0,1.9h5.9c0,0,0-1.7,0-2.6
						c0-4.1-2.3-6.8-7.2-6.8h-6.8c-1.8,0-2.7-0.9-2.7-2.2c0-0.7,0.4-1,0.7-1.3c0,0,0.5-0.4,0.7-0.7c1.2,0.7,2.6,1,4.1,1
						c5.9,0,10.2-3.8,10.2-9.1c0-1.5-0.3-2.9-1-4.1c0,0,0.2-0.2,0.7-0.6c0.7-0.7,1.7-0.6,1.7-0.6v-5.2
						C250.4,60.6,248.9,60.6,247.4,61.2 M238.8,75.6c-2.6,0-4.7-1.8-4.7-4.5c0-2.7,2.1-4.5,4.7-4.5s4.8,1.8,4.8,4.5
						C243.5,73.8,241.4,75.6,238.8,75.6"/>
				</g>
				<g>
					<defs>
						<rect id="SVGID_00000090262063534166927840000015808129320507121073_" x="18.7" y="-7.6" width="311.5" height="120.1"/>
					</defs>
					<clipPath id="SVGID_00000078764453507824659730000003496546440748122812_">
						<use xlink:href="#SVGID_00000090262063534166927840000015808129320507121073_"  style="overflow:visible;"/>
					</clipPath>
					<path style="clip-path:url(#SVGID_00000078764453507824659730000003496546440748122812_);" d="M59.4,67c2.6,0,4.5,1.4,5.4,3.8
						l5.5-1.6c-0.6-2.2-1.9-4-3.9-5.4c-2-1.3-4.3-2.1-7-2.1c-6.5-0.1-11.8,4.9-11.7,11.1c-0.1,6.3,5.2,11.3,11.7,11.2
						c2.6,0,5-0.7,7-2.1c2-1.3,3.3-3.1,3.9-5.4l-5.5-1.6c-0.9,2.6-2.6,3.8-5.4,3.8c-3.4,0-5.8-2.4-5.8-5.9C53.6,69.5,56,67,59.4,67"
						/>
				</g>
				<g>
					<defs>
						<rect id="SVGID_00000020392217419009931390000016418183930863068842_" x="18.7" y="-7.6" width="311.5" height="120.1"/>
					</defs>
					<clipPath id="SVGID_00000088814417999854203780000016370848392964772029_">
						<use xlink:href="#SVGID_00000020392217419009931390000016418183930863068842_"  style="overflow:visible;"/>
					</clipPath>
					<path style="clip-path:url(#SVGID_00000088814417999854203780000016370848392964772029_);" d="M84.3,61.8
						c-6.8-0.1-12,4.9-11.9,11.1c-0.1,6.2,5.2,11.3,11.9,11.1c6.9,0,11.9-4.9,11.9-11.1C96.2,66.8,91.1,61.8,84.3,61.8 M84.3,79
						c-3.6,0-6-2.5-6-5.9s2.4-5.9,6-5.9s6,2.5,6,5.9C90.3,76.5,87.9,79,84.3,79"/>
				</g>
				<g>
					<defs>
						<rect id="SVGID_00000026164079179828181100000003039494273283646624_" x="18.7" y="-7.6" width="311.5" height="120.1"/>
					</defs>
					<clipPath id="SVGID_00000154425840193863990170000009131755022145935792_">
						<use xlink:href="#SVGID_00000026164079179828181100000003039494273283646624_"  style="overflow:visible;"/>
					</clipPath>
					<path style="clip-path:url(#SVGID_00000154425840193863990170000009131755022145935792_);" d="M111.9,61.8
						c-2.7,0-5.2,0.8-6.8,2.5H105v-1.9h-5.7v30.1h5.9V81.9h0.1c1.4,1.3,4,2.2,6.6,2.2c6.1,0.1,11-4.9,10.9-11.1
						C122.9,66.8,118,61.7,111.9,61.8 M111,79c-3.2,0-5.8-2.1-5.8-4.7v-2.6c0-2.4,2.6-4.6,5.8-4.6c3.5,0,5.9,2.4,5.9,5.9
						C116.9,76.5,114.5,79,111,79"/>
				</g>
				<g>
					<defs>
						<rect id="SVGID_00000070117611147584017360000011776295832638395286_" x="18.7" y="-7.6" width="311.5" height="120.1"/>
					</defs>
					<clipPath id="SVGID_00000169523564142660045710000015547844735468348803_">
						<use xlink:href="#SVGID_00000070117611147584017360000011776295832638395286_"  style="overflow:visible;"/>
					</clipPath>
					<path style="clip-path:url(#SVGID_00000169523564142660045710000015547844735468348803_);" d="M136.6,61.8
						c-6.7,0-11.5,4.7-11.5,11.2c0,6.7,4.4,11.1,11.8,11.1c4.4,0,7.6-1.5,10.1-4.3l-3.6-3.6c-2.1,2.2-4,3.1-6.5,3.1
						c-3.5,0-5.8-1.7-5.9-4.5h17.1v-1.6C148.1,66.8,143.6,61.8,136.6,61.8 M131,70.7c0.3-2.5,2.5-4.1,5.7-4.1c3.1,0,5.4,1.6,5.6,4.1
						H131z"/>
				</g>
				<g>
					<defs>
						<rect id="SVGID_00000160893246785554145850000014199116747111150004_" x="18.7" y="-7.6" width="311.5" height="120.1"/>
					</defs>
					<clipPath id="SVGID_00000059300668635913879720000010962180249519107004_">
						<use xlink:href="#SVGID_00000160893246785554145850000014199116747111150004_"  style="overflow:visible;"/>
					</clipPath>
					<path style="clip-path:url(#SVGID_00000059300668635913879720000010962180249519107004_);" d="M164.1,61.8
						c-2.8,0-5.4,1-7.1,2.6H157v-2h-5.7v21.1h5.9V72.3c0-3,2.4-5.2,5.8-5.2s5.5,2,5.5,5.2v11.3h5.9v-12
						C174.2,65.8,170.1,61.8,164.1,61.8"/>
				</g>
			</g>
		</g>
	</g>
</g>
</svg>
